<svg width="176" height="71" viewBox="0 0 176 71" fill="none" xmlns="http://www.w3.org/2000/svg">
<path d="M13.4928 49.5869C6.5733 48.697 1.61768 44.4778 0.236861 38.3255C-0.0546464 36.9907 -0.0853313 33.0477 0.190833 31.7282C1.40289 25.9134 5.0544 22.2312 11.3141 20.5282C15.3645 19.4236 20.5963 19.2548 25.5213 20.0833C26.7793 20.2981 29.9092 21.1112 30.7991 21.4641C31.0752 21.5715 31.0752 21.5101 30.9678 20.2214C30.615 15.8948 28.7125 13.5627 24.6774 12.4427C23.5881 12.1512 23.0818 12.1052 20.2281 12.1052C15.9782 12.1206 13.5848 12.5195 9.24289 13.977L7.47851 14.5753L6.72673 12.3353C6.31248 11.1079 5.54536 8.76055 5.02371 7.13425L4.07248 4.17315L4.91632 3.78959C7.95413 2.45479 11.8511 1.33479 15.3339 0.813145C18.0802 0.398898 23.7876 0.230131 26.2884 0.490953C35.4325 1.44219 40.9404 5.6 43.0731 13.1792C44.0243 16.4778 43.9783 15.726 44.0396 33.0017L44.101 48.8351H37.4884H30.8911V46.2882V43.7261L29.7251 44.8461C26.2424 48.1447 21.701 49.8017 16.2391 49.7403C15.3185 49.725 14.0758 49.6636 13.4928 49.5869ZM23.6495 39.9978C27.5618 39.2 30.2774 36.7913 30.9832 33.508C31.0906 32.9556 31.198 31.8356 31.198 31.0225V29.5343L30.2161 29.1507C27.7459 28.1534 25.153 27.7545 21.8698 27.8619C19.1848 27.9386 18.2182 28.1381 16.5152 28.9666C13.9991 30.194 12.695 32.8482 13.2473 35.5792C13.7076 37.8039 15.2418 39.3228 17.6966 39.9671C19.0161 40.3047 22.0539 40.3354 23.6495 39.9978Z" fill="white"/>
<path d="M154.246 49.6022C148.968 48.9578 143.553 46.9633 139.272 44.1096C138.259 43.4192 137.339 42.7748 137.247 42.652C137.093 42.4679 137.569 41.6241 139.916 38.034C141.481 35.6252 142.832 33.646 142.908 33.646C142.97 33.646 143.706 34.0909 144.535 34.6279C147.695 36.6992 151.377 38.2488 154.569 38.8778C156.44 39.2307 159.447 39.2767 160.675 38.9392C162.623 38.4329 163.636 37.3129 163.651 35.6559C163.667 33.4466 162.178 32.526 155.29 30.4394C149.536 28.7057 147.664 27.9386 145.271 26.3583C141.819 24.0723 139.87 20.8657 139.548 16.9534C138.858 8.69915 143.522 2.62353 152.098 0.629008C153.801 0.245446 158.205 0.0766791 160.337 0.337501C164.925 0.905173 170.448 2.82298 173.992 5.09367L174.943 5.70737L172.412 10.2794C171.016 12.7956 169.834 14.8975 169.773 14.9589C169.712 15.0049 168.453 14.4526 166.981 13.7161C162.685 11.5835 159.816 10.7397 156.778 10.7397C154.799 10.7397 154.093 10.9085 152.988 11.6296C151.899 12.3507 151.469 13.977 152.037 15.1737C152.651 16.4471 154.799 17.5518 160.383 19.4696C162.531 20.206 165.078 21.1419 166.029 21.5408C173.547 24.7474 176.631 29.3194 175.895 36.1468C175.511 39.6142 174.36 42.3145 172.304 44.4778C169.88 47.04 166.72 48.6203 162.531 49.372C160.813 49.6789 155.965 49.8016 154.246 49.6022Z" fill="white"/>
<path d="M55.7461 24.8241V0.813151H62.5735H69.4009V4.21918V7.64055L69.8765 7.02685C70.1527 6.68932 71.1039 5.69206 72.0091 4.8022C75.4458 1.42685 78.8672 0.0153425 83.5927 0.0153425C86.0628 0.0153425 87.9039 0.322192 89.9138 1.10466C92.4606 2.10192 95.0228 4.20384 96.373 6.41316L97.0327 7.48713L98.6743 5.87617C102.771 1.8411 107.143 0.0153425 112.743 0C115.183 0 116.794 0.214795 118.574 0.767124C124.833 2.71562 128.285 7.62521 128.93 15.4499C129.022 16.6619 129.083 23.566 129.083 33.1244V48.8351H122.256H115.428V35.4565C115.428 27.5858 115.367 21.3874 115.275 20.4208C114.876 16.2323 113.296 13.8389 110.197 12.7649C109.414 12.4888 108.862 12.4274 107.527 12.4121C104.044 12.3967 101.697 13.7162 100.362 16.4778C99.2267 18.7945 99.2727 18.2269 99.2113 34.3825L99.15 48.8351H92.3379H85.5105V34.4592C85.5105 20.9425 85.4952 19.9759 85.219 18.6565C84.2831 14.1611 80.8771 11.8137 76.2436 12.4734C72.9297 12.949 70.8124 14.8975 69.8151 18.411C69.493 19.6077 69.4776 19.6997 69.4316 34.2291L69.3856 48.8351H62.5735H55.7461V24.8241Z" fill="white"/>
<path d="M98.525 69.9145C98.2795 69.7918 98.0954 69.6537 98.0954 69.6077C98.0954 69.5463 98.6938 68.3036 98.7858 68.1962C98.8011 68.1808 99.0313 68.2422 99.2921 68.3343C99.7831 68.503 100.397 68.3189 100.397 68.0121C100.397 67.9047 98.2948 62.4427 97.5277 60.5403C97.4664 60.3868 97.7425 60.3408 98.6017 60.3408H99.7677L100.581 62.7956C101.026 64.1458 101.425 65.2504 101.471 65.2504C101.517 65.2504 101.9 64.1611 102.315 62.8263L103.097 60.4175L104.202 60.3715C104.815 60.3408 105.306 60.3562 105.306 60.3868C105.306 60.6016 102.161 68.7945 101.931 69.1627C101.501 69.8685 100.872 70.16 99.8291 70.16C99.3381 70.1447 98.7551 70.0373 98.525 69.9145Z" fill="white"/>
<path d="M30.0037 67.6136C28.6382 66.9386 27.9785 65.8032 27.9785 64.1002C27.9785 60.8016 31.6147 59.1446 34.4684 61.1391L34.8826 61.446L34.2382 62.1671L33.5939 62.8882L33.0569 62.5353C31.4919 61.4767 29.6048 62.8728 30.1111 64.7446C30.3566 65.6652 31.0163 66.1715 31.9522 66.1715C32.4585 66.1715 32.8114 66.0794 33.0876 65.8646C33.3024 65.6958 33.5325 65.5578 33.6092 65.5578C33.6859 65.5578 34.0081 65.8186 34.3303 66.1561L34.898 66.7391L34.3917 67.1687C33.6399 67.8131 33.0108 68.0126 31.8448 68.0126C31.0317 68.0126 30.6328 67.9205 30.0037 67.6136Z" fill="white"/>
<path d="M37.0465 67.7527C36.31 67.3692 35.9265 66.7862 35.8498 65.9116C35.6963 64.0859 37.338 63.0272 39.7314 63.4108C40.2224 63.4875 40.652 63.5335 40.6826 63.4875C40.8668 63.3188 40.3298 62.4903 39.9309 62.3368C39.5013 62.1527 38.2125 62.1988 37.338 62.4135C36.9698 62.5056 36.9237 62.4442 36.6936 61.7231L36.4328 60.9253L37.0004 60.6952C37.3073 60.5571 38.1204 60.419 38.7955 60.373C40.8054 60.2656 41.864 60.7259 42.4163 61.9379C42.6618 62.4749 42.7078 62.9659 42.7078 65.2212V67.8601H41.7106C40.8207 67.8601 40.7133 67.8294 40.7133 67.5533C40.7133 67.1697 40.652 67.1697 40.0843 67.584C39.4552 68.0596 37.7983 68.1516 37.0465 67.7527ZM40.207 66.2338C40.5292 66.0344 40.8514 65.0371 40.6673 64.853C40.4678 64.6535 38.7802 64.6382 38.412 64.8223C37.9824 65.0525 37.7983 65.8809 38.1051 66.2492C38.4426 66.6481 39.5473 66.6327 40.207 66.2338Z" fill="white"/>
<path d="M62.6371 67.5838C58.9703 65.666 60.4278 60.2961 64.6163 60.2961C65.859 60.2961 66.6568 60.603 67.47 61.3855C68.2525 62.1372 68.636 62.9811 68.636 64.0244C68.636 65.3592 68.3905 65.9729 67.516 66.8474C66.5955 67.7526 65.9357 68.0134 64.4475 68.0134C63.6651 68.0134 63.2815 67.9214 62.6371 67.5838ZM65.8897 65.7427C66.304 65.3745 66.396 65.1751 66.4574 64.454C66.5034 63.8709 66.442 63.472 66.2733 63.1345C65.6135 61.8457 63.5116 61.8611 62.8979 63.1652C62.2075 64.6227 63.1127 66.1723 64.6623 66.1723C65.2607 66.1723 65.5062 66.0956 65.8897 65.7427Z" fill="white"/>
<path d="M73.0736 67.5528L72.3985 67.1079L72.3525 67.4761C72.3064 67.8443 72.2604 67.8597 71.2325 67.8597H70.1738V62.7967V57.7336H71.2478H72.3218V59.6054V61.4772L72.7514 61.0783C73.3804 60.4799 73.8407 60.2958 74.6999 60.2958C75.6357 60.2958 76.541 60.7254 77.1853 61.4772C77.8144 62.1676 78.0599 62.9654 78.0599 64.1775C78.0599 65.4049 77.8144 66.1873 77.1853 66.8931C76.541 67.6295 75.6664 68.0131 74.6078 68.0131C73.9021 68.0131 73.6259 67.9364 73.0736 67.5528ZM75.2215 65.7884C76.3722 64.8065 76.1574 62.8887 74.8226 62.2597C72.9508 61.3698 71.4166 64.1775 72.9508 65.7117C73.5799 66.3254 74.5311 66.3561 75.2215 65.7884Z" fill="white"/>
<path d="M93.5537 67.7218C92.8633 67.3076 92.7252 66.7245 92.7252 64.3158V62.1832H92.265H91.8047V61.2626V60.3421H92.265H92.7252V59.4215V58.501H93.7992H94.8732V59.4215V60.3421H95.717H96.5609V61.2626V62.1832H95.717H94.8732V64.0089C94.8732 66.1569 94.9652 66.3256 95.9625 66.0648L96.5609 65.9114V66.7859C96.5609 67.6451 96.5455 67.6758 96.0852 67.8445C95.3181 68.1054 94.0907 68.044 93.5537 67.7218Z" fill="white"/>
<path d="M112.517 67.7215C111.719 67.476 110.369 66.6936 110.369 66.4941C110.369 66.4481 110.645 66.0799 110.998 65.6656L111.627 64.9445L112.026 65.2667C112.993 66.0185 114.45 66.3254 115.325 65.9571C115.8 65.7577 115.892 65.6503 115.892 65.2667C115.892 64.653 115.509 64.4076 113.683 63.8706C111.98 63.3796 111.351 62.9807 110.967 62.1215C110.277 60.6026 110.921 59.0223 112.517 58.3012C113.806 57.7182 116.23 58.0404 117.411 58.9456L117.78 59.2218L117.273 59.9736C116.997 60.3878 116.752 60.7407 116.736 60.7714C116.721 60.7867 116.261 60.6026 115.724 60.3418C114.68 59.8508 114.005 59.7741 113.376 60.0656C112.87 60.2804 112.732 60.7254 113.023 61.1703C113.192 61.4158 113.668 61.6306 114.696 61.9374C117.258 62.7045 118.04 63.3949 118.04 64.9139C118.04 65.3588 117.948 65.9418 117.826 66.218C117.565 66.8777 116.66 67.6448 115.938 67.8443C115.064 68.0897 113.468 68.0284 112.517 67.7215Z" fill="white"/>
<path d="M121.813 67.7833C121.062 67.5224 120.08 66.5866 119.711 65.7887C119.328 64.9756 119.328 63.3953 119.711 62.5668C120.034 61.8457 121.062 60.8638 121.859 60.5416C122.166 60.4035 122.872 60.2961 123.455 60.2961C127.091 60.2961 128.84 64.3926 126.293 66.9394C125.542 67.7066 124.728 68.0134 123.486 67.9981C122.903 67.9981 122.151 67.906 121.813 67.7833ZM124.621 65.7734C125.25 65.2518 125.511 64.3772 125.265 63.5794C124.713 61.7077 122.074 61.6923 121.568 63.5487C121.322 64.4693 121.813 65.7274 122.535 66.0189C123.225 66.2951 124.13 66.1877 124.621 65.7734Z" fill="white"/>
<path d="M134.458 67.7368C134.12 67.5527 133.783 67.1998 133.583 66.7856C133.261 66.1566 133.23 65.9111 133.23 63.2261V60.3418H134.304H135.378V62.7198C135.378 64.162 135.44 65.236 135.547 65.4661C135.885 66.1719 137.066 66.2946 137.634 65.6809C137.864 65.4201 137.91 65.0212 137.956 62.8579L138.017 60.3264L139.03 60.3724L140.058 60.4185L140.104 64.1467L140.135 67.8596H139.061H137.987V67.3686V66.8777L137.572 67.2766C137.327 67.4914 136.989 67.7522 136.805 67.8442C136.299 68.1051 135.056 68.0437 134.458 67.7368Z" fill="white"/>
<path d="M143.077 67.6298C142.433 67.0774 142.28 66.4484 142.28 64.147V62.1832H141.819H141.344L141.39 61.3087C141.436 60.4648 141.451 60.4188 141.865 60.3728C142.264 60.3267 142.28 60.296 142.28 59.4062V58.501H143.354H144.428V59.4215V60.3421H145.348H146.269V61.2626V62.1678L145.394 62.2139L144.504 62.2599L144.458 63.9629C144.412 66.0341 144.535 66.2643 145.609 66.0955L146.269 66.0034V66.7552C146.269 67.7525 146.039 67.9213 144.673 67.9826C143.66 68.044 143.522 68.0133 143.077 67.6298Z" fill="white"/>
<path d="M153.772 67.5982C150.765 66.064 151.011 61.8908 154.187 60.556C155.077 60.1725 156.611 60.2185 157.516 60.6481C160.508 62.0596 160.523 66.2327 157.547 67.6442C156.411 68.1812 154.892 68.1659 153.772 67.5982ZM156.826 65.9259C157.317 65.5884 157.623 64.8979 157.623 64.1768C157.623 62.9034 156.872 62.1823 155.583 62.1823C153.849 62.1823 153.143 64.5144 154.493 65.6957C154.923 66.0793 155.153 66.1714 155.752 66.1714C156.166 66.1714 156.626 66.064 156.826 65.9259Z" fill="white"/>
<path d="M171.278 67.8747C170.833 67.7366 169.912 67.2763 169.636 67.0615C169.483 66.9388 169.559 66.7547 169.897 66.2484L170.357 65.5733L171.201 65.9569C172.29 66.4632 173.472 66.4325 173.548 65.9109C173.61 65.5273 173.318 65.3432 172.152 64.9903C170.419 64.484 169.82 63.7783 169.928 62.3821C170.004 61.4309 170.526 60.7711 171.401 60.4796C172.152 60.2341 173.84 60.3722 174.699 60.7711L175.436 61.1087L175.021 61.8604L174.592 62.6122L173.947 62.3361C172.919 61.8911 171.984 61.8758 171.83 62.29C171.677 62.6583 171.968 62.873 173.364 63.3947C174.101 63.6862 174.776 64.0544 175.052 64.3459C175.436 64.7448 175.497 64.9289 175.497 65.6807C175.482 66.7547 175.175 67.261 174.285 67.7059C173.61 68.0281 172.076 68.1048 171.278 67.8747Z" fill="white"/>
<path d="M1.63695 67.369C1.75969 67.0928 2.69558 64.8835 3.72353 62.4594L5.61065 58.0408H6.6386H7.66654L9.69175 62.843C10.8118 65.4665 11.717 67.6912 11.717 67.7526C11.717 67.8139 11.226 67.86 10.6123 67.8293L9.50764 67.7832L9.10874 66.786L8.70983 65.7887L6.62326 65.7427L4.53668 65.6967L4.10709 66.786L3.69284 67.86H2.5575H1.4375L1.63695 67.369ZM7.83531 63.6561C7.43641 62.6282 6.746 61.0019 6.65394 60.9098C6.54654 60.7871 5.42654 63.3646 5.42654 63.7175C5.42654 63.8095 5.94819 63.8709 6.66928 63.8709C7.68189 63.8709 7.89668 63.8249 7.83531 63.6561Z" fill="white"/>
<path d="M13.218 65.0671L13.172 62.2594L12.7577 62.2134C12.3435 62.1674 12.3281 62.1214 12.3281 61.3236C12.3281 60.5104 12.3281 60.4951 12.7884 60.4951C13.2333 60.4951 13.2487 60.4797 13.2487 59.774C13.2487 58.0863 14.5681 57.2731 16.6087 57.672C17.0689 57.7641 17.0843 57.7948 17.0843 58.654V59.5438L16.4399 59.4671C15.6728 59.3904 15.4733 59.4978 15.3352 60.0655L15.2432 60.4951H16.1637H17.0843V61.3389V62.1827H16.2405H15.3966V65.0211V67.8594H14.3226H13.2487L13.218 65.0671Z" fill="white"/>
<path d="M18.1602 64.1005V60.3416H19.2341H20.3081V61.0627V61.7991L20.6763 61.2468C21.0599 60.6945 21.5969 60.3723 22.3026 60.3109C22.6708 60.2649 22.6862 60.2956 22.7322 61.3542L22.7782 62.4435L22.1339 62.5509C21.3514 62.6737 20.707 63.2874 20.4769 64.1159C20.3848 64.438 20.3081 65.42 20.3081 66.2945V67.8594H19.2341H18.1602V64.1005Z" fill="white"/>
<path d="M24.1406 64.0997V60.3408H25.2146H26.2886V64.0997V67.8586H25.2146H24.1406V64.0997Z" fill="white"/>
<path d="M49 62.9504V58.0408H50.1353H51.286L52.5901 60.1273L53.8942 62.2139L54.4773 61.278C54.7995 60.7564 55.3825 59.8205 55.7814 59.1915L56.5178 58.0408H57.6685H58.8192V62.9504V67.86H57.7452H56.6712L56.6406 64.7608L56.5945 61.6463L55.2444 63.6868C54.4926 64.8221 53.8636 65.712 53.8329 65.6813C53.8022 65.6506 53.1885 64.7454 52.4674 63.6408L51.1479 61.6463V64.7608V67.86H50.074H49V62.9504Z" fill="white"/>
<path d="M79.7143 64.1467L79.7603 60.4185L80.8036 60.3724L81.8315 60.3264V64.1007V67.8596H80.7576H79.6836L79.7143 64.1467Z" fill="white"/>
<path d="M83.9824 62.7967V57.7336H85.0564H86.1304V62.7967V67.8597H85.0564H83.9824V62.7967Z" fill="white"/>
<path d="M88.2734 64.1007V60.3264L89.3167 60.3724L90.3447 60.4185L90.3907 64.1467L90.4214 67.8596H89.3474H88.2734V64.1007Z" fill="white"/>
<path d="M129.086 62.7967V57.7336H130.16H131.234V62.7967V67.8597H130.16H129.086V62.7967Z" fill="white"/>
<path d="M147.959 64.1007V60.3264L149.002 60.3724L150.03 60.4185L150.076 64.1467L150.107 67.8596H149.033H147.959V64.1007Z" fill="white"/>
<path d="M161.307 64.1011V60.3422H162.381H163.455V60.9252C163.47 61.3701 163.501 61.4315 163.608 61.232C163.915 60.7104 164.835 60.2961 165.679 60.2961C166.753 60.2961 167.413 60.695 167.873 61.5696C168.18 62.1986 168.211 62.4441 168.211 65.0523V67.86H167.137H166.063V65.5586C166.063 63.1038 165.955 62.6282 165.342 62.352C164.743 62.0759 164.375 62.1526 163.9 62.6282L163.455 63.0731V65.4666V67.86H162.381H161.307V64.1011Z" fill="white"/>
<path d="M24.1406 58.6542V57.7336H25.2146H26.2886V58.6542V59.5747H25.2146H24.1406V58.6542Z" fill="white"/>
<path d="M79.6836 58.6542V57.7336H80.8343H81.985V58.6542V59.5747H80.8343H79.6836V58.6542Z" fill="white"/>
<path d="M88.125 58.6542V57.7336H89.2757H90.4264V58.6542V59.5747H89.2757H88.125V58.6542Z" fill="white"/>
<path d="M147.801 58.6542V57.7336H148.951H150.102V58.6542V59.5747H148.951H147.801V58.6542Z" fill="white"/>
</svg>
