<svg width="24" height="25" viewBox="0 0 24 25" fill="none" xmlns="http://www.w3.org/2000/svg">
<path fill-rule="evenodd" clip-rule="evenodd" d="M11 20.1599C15.9706 20.1599 20 16.1305 20 11.1599C20 6.18935 15.9706 2.15991 11 2.15991C6.02944 2.15991 2 6.18935 2 11.1599C2 16.1305 6.02944 20.1599 11 20.1599ZM8.11183 8.36728C8.28903 8.17985 8.38865 7.92556 8.38877 7.66036C8.3889 7.39515 8.28952 7.14076 8.1125 6.95314C7.93548 6.76552 7.69532 6.66004 7.44486 6.65991C7.19439 6.65978 6.95413 6.765 6.77694 6.95244C6.59974 7.13987 6.50012 7.39416 6.5 7.65936C6.49987 7.92456 6.59925 8.17895 6.77627 8.36657C6.95329 8.55419 7.19345 8.65967 7.44391 8.6598C7.69438 8.65993 7.93464 8.55471 8.11183 8.36728ZM6.52833 9.40026H8.4171V15.6599H6.52833V9.40026ZM9.52204 9.40026H11.4014L11.3825 10.2402C12.1663 8.7253 15.5 8.6103 15.5 11.6951V15.6599H13.6348V12.3751C13.6348 10.3752 11.3825 10.5452 11.3825 12.3751V15.6599H9.52204V9.40026Z" fill="white"/>
</svg>
