<svg width="176" height="71" viewBox="0 0 176 71" fill="none" xmlns="http://www.w3.org/2000/svg">
<path d="M13.4928 49.5866C6.5733 48.6968 1.61768 44.4776 0.236861 38.3253C-0.0546464 36.9905 -0.0853313 33.0474 0.190833 31.728C1.40289 25.9132 5.0544 22.231 11.3141 20.528C15.3645 19.4233 20.5963 19.2546 25.5213 20.0831C26.7793 20.2978 29.9092 21.111 30.7991 21.4639C31.0752 21.5713 31.0752 21.5099 30.9678 20.2211C30.615 15.8946 28.7125 13.5625 24.6774 12.4425C23.5881 12.151 23.0818 12.105 20.2281 12.105C15.9782 12.1203 13.5848 12.5192 9.24289 13.9767L7.47851 14.5751L6.72673 12.3351C6.31248 11.1077 5.54536 8.7603 5.02371 7.134L4.07248 4.1729L4.91632 3.78934C7.95413 2.45455 11.8511 1.33454 15.3339 0.812901C18.0802 0.398654 23.7876 0.229887 26.2884 0.490709C35.4325 1.44194 40.9404 5.59975 43.0731 13.1789C44.0243 16.4776 43.9783 15.7258 44.0396 33.0014L44.101 48.8349H37.4884H30.8911V46.288V43.7258L29.7251 44.8458C26.2424 48.1444 21.701 49.8014 16.2391 49.7401C15.3185 49.7247 14.0758 49.6633 13.4928 49.5866ZM23.6495 39.9976C27.5618 39.1998 30.2774 36.791 30.9832 33.5077C31.0906 32.9554 31.198 31.8354 31.198 31.0222V29.534L30.2161 29.1505C27.7459 28.1532 25.153 27.7543 21.8698 27.8617C19.1848 27.9384 18.2182 28.1379 16.5152 28.9663C13.9991 30.1937 12.695 32.848 13.2473 35.579C13.7076 37.8036 15.2418 39.3225 17.6966 39.9669C19.0161 40.3044 22.0539 40.3351 23.6495 39.9976Z" fill="#363B5A"/>
<path d="M154.246 49.6022C148.968 48.9578 143.553 46.9633 139.272 44.1096C138.259 43.4192 137.339 42.7748 137.247 42.652C137.093 42.4679 137.569 41.6241 139.916 38.034C141.481 35.6252 142.832 33.646 142.908 33.646C142.97 33.646 143.706 34.0909 144.535 34.6279C147.695 36.6992 151.377 38.2488 154.569 38.8778C156.44 39.2307 159.447 39.2767 160.675 38.9392C162.623 38.4329 163.636 37.3129 163.651 35.6559C163.667 33.4466 162.178 32.526 155.29 30.4394C149.536 28.7057 147.664 27.9386 145.271 26.3583C141.819 24.0723 139.87 20.8657 139.548 16.9534C138.858 8.69915 143.522 2.62353 152.098 0.629008C153.801 0.245446 158.205 0.0766791 160.337 0.337501C164.925 0.905173 170.448 2.82298 173.992 5.09367L174.943 5.70737L172.412 10.2794C171.016 12.7956 169.834 14.8975 169.773 14.9589C169.712 15.0049 168.453 14.4526 166.981 13.7161C162.685 11.5835 159.816 10.7397 156.778 10.7397C154.799 10.7397 154.093 10.9085 152.988 11.6296C151.899 12.3507 151.469 13.977 152.037 15.1737C152.651 16.4471 154.799 17.5518 160.383 19.4696C162.531 20.206 165.078 21.1419 166.029 21.5408C173.547 24.7474 176.631 29.3194 175.895 36.1468C175.511 39.6142 174.36 42.3145 172.304 44.4778C169.88 47.04 166.72 48.6203 162.531 49.372C160.813 49.6789 155.965 49.8016 154.246 49.6022Z" fill="#363B5A"/>
<path d="M55.7451 24.8241V0.813151H62.5725H69.3999V4.21918V7.64055L69.8755 7.02685C70.1517 6.68932 71.1029 5.69206 72.0081 4.8022C75.4449 1.42685 78.8662 0.0153425 83.5917 0.0153425C86.0619 0.0153425 87.903 0.322192 89.9128 1.10466C92.4597 2.10192 95.0219 4.20384 96.372 6.41316L97.0317 7.48713L98.6734 5.87617C102.77 1.8411 107.142 0.0153425 112.742 0C115.182 0 116.793 0.214795 118.573 0.767124C124.832 2.71562 128.284 7.62521 128.929 15.4499C129.021 16.6619 129.082 23.566 129.082 33.1244V48.8351H122.255H115.427V35.4565C115.427 27.5858 115.366 21.3874 115.274 20.4208C114.875 16.2323 113.295 13.8389 110.196 12.7649C109.413 12.4888 108.861 12.4274 107.526 12.4121C104.043 12.3967 101.696 13.7162 100.361 16.4778C99.2257 18.7945 99.2717 18.2269 99.2104 34.3825L99.149 48.8351H92.3369H85.5095V34.4592C85.5095 20.9425 85.4942 19.9759 85.218 18.6565C84.2821 14.1611 80.8761 11.8137 76.2427 12.4734C72.9287 12.949 70.8114 14.8975 69.8142 18.411C69.492 19.6077 69.4766 19.6997 69.4306 34.2291L69.3846 48.8351H62.5725H55.7451V24.8241Z" fill="#363B5A"/>
<path d="M98.525 69.9145C98.2795 69.7918 98.0954 69.6537 98.0954 69.6077C98.0954 69.5463 98.6938 68.3036 98.7858 68.1962C98.8011 68.1808 99.0313 68.2422 99.2921 68.3343C99.7831 68.503 100.397 68.3189 100.397 68.0121C100.397 67.9047 98.2948 62.4427 97.5277 60.5403C97.4664 60.3868 97.7425 60.3408 98.6017 60.3408H99.7677L100.581 62.7956C101.026 64.1458 101.425 65.2504 101.471 65.2504C101.517 65.2504 101.9 64.1611 102.315 62.8263L103.097 60.4175L104.202 60.3715C104.815 60.3408 105.306 60.3562 105.306 60.3868C105.306 60.6016 102.161 68.7945 101.931 69.1627C101.501 69.8685 100.872 70.16 99.8291 70.16C99.3381 70.1447 98.7551 70.0373 98.525 69.9145Z" fill="#E52346"/>
<path d="M30.0027 67.6139C28.6373 66.9388 27.9775 65.8035 27.9775 64.1005C27.9775 60.8018 31.6137 59.1448 34.4674 61.1394L34.8817 61.4462L34.2373 62.1673L33.5929 62.8884L33.0559 62.5355C31.491 61.4769 29.6038 62.8731 30.1101 64.7448C30.3556 65.6654 31.0153 66.1717 31.9512 66.1717C32.4575 66.1717 32.8104 66.0796 33.0866 65.8648C33.3014 65.6961 33.5315 65.558 33.6082 65.558C33.6849 65.558 34.0071 65.8188 34.3293 66.1564L34.897 66.7394L34.3907 67.169C33.6389 67.8133 33.0099 68.0128 31.8438 68.0128C31.0307 68.0128 30.6318 67.9207 30.0027 67.6139Z" fill="#E52346"/>
<path d="M37.0445 67.7532C36.3081 67.3697 35.9245 66.7866 35.8478 65.9121C35.6944 64.0864 37.336 63.0277 39.7295 63.4113C40.2204 63.488 40.65 63.534 40.6807 63.488C40.8648 63.3192 40.3278 62.4907 39.9289 62.3373C39.4993 62.1532 38.2106 62.1992 37.336 62.414C36.9678 62.5061 36.9218 62.4447 36.6916 61.7236L36.4308 60.9258L36.9985 60.6957C37.3053 60.5576 38.1185 60.4195 38.7936 60.3735C40.8034 60.2661 41.8621 60.7264 42.4144 61.9384C42.6599 62.4754 42.7059 62.9664 42.7059 65.2217V67.8606H41.7086C40.8188 67.8606 40.7114 67.8299 40.7114 67.5538C40.7114 67.1702 40.65 67.1702 40.0823 67.5844C39.4533 68.0601 37.7963 68.1521 37.0445 67.7532ZM40.2051 66.2343C40.5273 66.0349 40.8495 65.0376 40.6653 64.8535C40.4659 64.654 38.7782 64.6387 38.41 64.8228C37.9804 65.0529 37.7963 65.8814 38.1032 66.2497C38.4407 66.6486 39.5453 66.6332 40.2051 66.2343Z" fill="#E52346"/>
<path d="M62.6361 67.5841C58.9693 65.6663 60.4268 60.2964 64.6153 60.2964C65.8581 60.2964 66.6559 60.6032 67.469 61.3857C68.2515 62.1375 68.635 62.9813 68.635 64.0246C68.635 65.3594 68.3896 65.9731 67.515 66.8476C66.5945 67.7528 65.9348 68.0137 64.4465 68.0137C63.6641 68.0137 63.2805 67.9216 62.6361 67.5841ZM65.8887 65.743C66.303 65.3747 66.395 65.1753 66.4564 64.4542C66.5024 63.8712 66.4411 63.4723 66.2723 63.1347C65.6126 61.846 63.5107 61.8613 62.897 63.1654C62.2065 64.623 63.1117 66.1726 64.6613 66.1726C65.2597 66.1726 65.5052 66.0958 65.8887 65.743Z" fill="#E52346"/>
<path d="M73.0726 67.5531L72.3975 67.1081L72.3515 67.4764C72.3055 67.8446 72.2594 67.8599 71.2315 67.8599H70.1729V62.7969V57.7339H71.2468H72.3208V59.6057V61.4775L72.7504 61.0785C73.3794 60.4802 73.8397 60.2961 74.6989 60.2961C75.6348 60.2961 76.54 60.7257 77.1844 61.4775C77.8134 62.1679 78.0589 62.9657 78.0589 64.1777C78.0589 65.4051 77.8134 66.1876 77.1844 66.8933C76.54 67.6298 75.6655 68.0133 74.6068 68.0133C73.9011 68.0133 73.6249 67.9366 73.0726 67.5531ZM75.2205 65.7887C76.3712 64.8068 76.1564 62.889 74.8216 62.2599C72.9498 61.3701 71.4156 64.1777 72.9498 65.712C73.5789 66.3257 74.5301 66.3564 75.2205 65.7887Z" fill="#E52346"/>
<path d="M93.5518 67.7223C92.8614 67.308 92.7233 66.725 92.7233 64.3163V62.1837H92.263H91.8027V61.2631V60.3426H92.263H92.7233V59.422V58.5015H93.7973H94.8712V59.422V60.3426H95.7151H96.5589V61.2631V62.1837H95.7151H94.8712V64.0094C94.8712 66.1574 94.9633 66.3261 95.9605 66.0653L96.5589 65.9119V66.7864C96.5589 67.6456 96.5436 67.6763 96.0833 67.845C95.3162 68.1059 94.0888 68.0445 93.5518 67.7223Z" fill="#E52346"/>
<path d="M112.516 67.7215C111.718 67.476 110.368 66.6936 110.368 66.4941C110.368 66.4481 110.644 66.0799 110.997 65.6656L111.626 64.9445L112.025 65.2667C112.992 66.0185 114.449 66.3254 115.324 65.9571C115.799 65.7577 115.891 65.6503 115.891 65.2667C115.891 64.653 115.508 64.4076 113.682 63.8706C111.979 63.3796 111.35 62.9807 110.967 62.1215C110.276 60.6026 110.92 59.0223 112.516 58.3012C113.805 57.7182 116.229 58.0404 117.41 58.9456L117.779 59.2218L117.272 59.9736C116.996 60.3878 116.751 60.7407 116.735 60.7714C116.72 60.7867 116.26 60.6026 115.723 60.3418C114.679 59.8508 114.004 59.7741 113.375 60.0656C112.869 60.2804 112.731 60.7254 113.022 61.1703C113.191 61.4158 113.667 61.6306 114.695 61.9374C117.257 62.7045 118.039 63.3949 118.039 64.9139C118.039 65.3588 117.947 65.9418 117.825 66.218C117.564 66.8777 116.659 67.6448 115.937 67.8443C115.063 68.0897 113.467 68.0284 112.516 67.7215Z" fill="#E52346"/>
<path d="M121.812 67.7835C121.061 67.5227 120.079 66.5868 119.711 65.789C119.327 64.9758 119.327 63.3956 119.711 62.5671C120.033 61.846 121.061 60.8641 121.858 60.5419C122.165 60.4038 122.871 60.2964 123.454 60.2964C127.09 60.2964 128.839 64.3928 126.292 66.9397C125.541 67.7068 124.728 68.0137 123.485 67.9983C122.902 67.9983 122.15 67.9063 121.812 67.7835ZM124.62 65.7737C125.249 65.252 125.51 64.3775 125.265 63.5797C124.712 61.7079 122.073 61.6926 121.567 63.549C121.321 64.4695 121.812 65.7276 122.534 66.0191C123.224 66.2953 124.129 66.1879 124.62 65.7737Z" fill="#E52346"/>
<path d="M134.458 67.7371C134.12 67.553 133.783 67.2001 133.583 66.7858C133.261 66.1568 133.23 65.9113 133.23 63.2264V60.342H134.304H135.378V62.7201C135.378 64.1623 135.44 65.2363 135.547 65.4664C135.885 66.1721 137.066 66.2949 137.634 65.6812C137.864 65.4204 137.91 65.0215 137.956 62.8582L138.017 60.3267L139.03 60.3727L140.058 60.4187L140.104 64.1469L140.135 67.8598H139.061H137.987V67.3689V66.8779L137.572 67.2768C137.327 67.4916 136.989 67.7524 136.805 67.8445C136.299 68.1053 135.056 68.0439 134.458 67.7371Z" fill="#E52346"/>
<path d="M143.076 67.6302C142.432 67.0779 142.279 66.4489 142.279 64.1475V62.1837H141.818H141.343L141.389 61.3091C141.435 60.4653 141.45 60.4193 141.864 60.3732C142.263 60.3272 142.279 60.2965 142.279 59.4067V58.5015H143.353H144.427V59.422V60.3426H145.347H146.268V61.2631V62.1683L145.393 62.2143L144.503 62.2604L144.457 63.9634C144.411 66.0346 144.534 66.2648 145.608 66.096L146.268 66.0039V66.7557C146.268 67.753 146.038 67.9217 144.672 67.9831C143.659 68.0445 143.521 68.0138 143.076 67.6302Z" fill="#E52346"/>
<path d="M153.771 67.5982C150.764 66.064 151.01 61.8908 154.186 60.556C155.076 60.1725 156.61 60.2185 157.515 60.6481C160.507 62.0596 160.522 66.2327 157.546 67.6442C156.41 68.1812 154.891 68.1659 153.771 67.5982ZM156.825 65.9259C157.316 65.5884 157.622 64.8979 157.622 64.1768C157.622 62.9034 156.871 62.1823 155.582 62.1823C153.848 62.1823 153.142 64.5144 154.493 65.6957C154.922 66.0793 155.152 66.1714 155.751 66.1714C156.165 66.1714 156.625 66.064 156.825 65.9259Z" fill="#E52346"/>
<path d="M171.278 67.8752C170.833 67.7371 169.912 67.2768 169.636 67.062C169.483 66.9393 169.559 66.7552 169.897 66.2489L170.357 65.5738L171.201 65.9574C172.29 66.4637 173.472 66.433 173.548 65.9113C173.61 65.5278 173.318 65.3437 172.152 64.9908C170.419 64.4845 169.82 63.7787 169.928 62.3826C170.004 61.4313 170.526 60.7716 171.401 60.4801C172.152 60.2346 173.84 60.3727 174.699 60.7716L175.436 61.1091L175.021 61.8609L174.592 62.6127L173.947 62.3365C172.919 61.8916 171.984 61.8763 171.83 62.2905C171.677 62.6587 171.968 62.8735 173.364 63.3952C174.101 63.6867 174.776 64.0549 175.052 64.3464C175.436 64.7453 175.497 64.9294 175.497 65.6812C175.482 66.7552 175.175 67.2615 174.285 67.7064C173.61 68.0286 172.076 68.1053 171.278 67.8752Z" fill="#E52346"/>
<path d="M1.63598 67.3692C1.75872 67.0931 2.69461 64.8838 3.72255 62.4596L5.60968 58.041H6.63762H7.66557L9.69077 62.8432C10.8108 65.4668 11.716 67.6914 11.716 67.7528C11.716 67.8142 11.225 67.8602 10.6113 67.8295L9.50667 67.7835L9.10776 66.7862L8.70886 65.789L6.62228 65.7429L4.5357 65.6969L4.10611 66.7862L3.69187 67.8602H2.55652H1.43652L1.63598 67.3692ZM7.83434 63.6564C7.43543 62.6284 6.74502 61.0021 6.65297 60.9101C6.54557 60.7873 5.42557 63.3649 5.42557 63.7177C5.42557 63.8098 5.94721 63.8712 6.66831 63.8712C7.68091 63.8712 7.89571 63.8251 7.83434 63.6564Z" fill="#E52346"/>
<path d="M13.218 65.0674L13.172 62.2597L12.7577 62.2137C12.3435 62.1676 12.3281 62.1216 12.3281 61.3238C12.3281 60.5106 12.3281 60.4953 12.7884 60.4953C13.2333 60.4953 13.2487 60.48 13.2487 59.7742C13.2487 58.0865 14.5681 57.2734 16.6087 57.6723C17.0689 57.7643 17.0843 57.795 17.0843 58.6542V59.5441L16.4399 59.4674C15.6728 59.3906 15.4733 59.498 15.3352 60.0657L15.2432 60.4953H16.1637H17.0843V61.3391V62.183H16.2405H15.3966V65.0213V67.8597H14.3226H13.2487L13.218 65.0674Z" fill="#E52346"/>
<path d="M18.1602 64.1008V60.3418H19.2341H20.3081V61.0629V61.7994L20.6763 61.2471C21.0599 60.6947 21.5969 60.3725 22.3026 60.3112C22.6708 60.2651 22.6862 60.2958 22.7322 61.3544L22.7782 62.4438L22.1339 62.5512C21.3514 62.6739 20.707 63.2876 20.4769 64.1161C20.3848 64.4383 20.3081 65.4202 20.3081 66.2947V67.8597H19.2341H18.1602V64.1008Z" fill="#E52346"/>
<path d="M24.1406 64.0997V60.3408H25.2146H26.2886V64.0997V67.8586H25.2146H24.1406V64.0997Z" fill="#E52346"/>
<path d="M48.998 62.9506V58.041H50.1334H51.2841L52.5882 60.1276L53.8923 62.2142L54.4753 61.2783C54.7975 60.7566 55.3805 59.8207 55.7794 59.1917L56.5159 58.041H57.6665H58.8172V62.9506V67.8602H57.7433H56.6693L56.6386 64.761L56.5926 61.6465L55.2424 63.687C54.4907 64.8224 53.8616 65.7123 53.8309 65.6816C53.8002 65.6509 53.1865 64.7457 52.4654 63.641L51.146 61.6465V64.761V67.8602H50.072H48.998V62.9506Z" fill="#E52346"/>
<path d="M79.7133 64.1469L79.7593 60.4187L80.8026 60.3727L81.8306 60.3267V64.1009V67.8598H80.7566H79.6826L79.7133 64.1469Z" fill="#E52346"/>
<path d="M83.9805 62.7969V57.7339H85.0544H86.1284V62.7969V67.8599H85.0544H83.9805V62.7969Z" fill="#E52346"/>
<path d="M88.2725 64.1009V60.3267L89.3157 60.3727L90.3437 60.4187L90.3897 64.1469L90.4204 67.8598H89.3464H88.2725V64.1009Z" fill="#E52346"/>
<path d="M129.086 62.7969V57.7339H130.16H131.234V62.7969V67.8599H130.16H129.086V62.7969Z" fill="#E52346"/>
<path d="M147.959 64.1009V60.3267L149.002 60.3727L150.03 60.4187L150.076 64.1469L150.107 67.8598H149.033H147.959V64.1009Z" fill="#E52346"/>
<path d="M161.306 64.1013V60.3424H162.38H163.454V60.9254C163.469 61.3704 163.5 61.4317 163.607 61.2323C163.914 60.7106 164.834 60.2964 165.678 60.2964C166.752 60.2964 167.412 60.6953 167.872 61.5698C168.179 62.1989 168.21 62.4443 168.21 65.0526V67.8602H167.136H166.062V65.5589C166.062 63.1041 165.954 62.6284 165.341 62.3523C164.742 62.0761 164.374 62.1528 163.899 62.6284L163.454 63.0734V65.4668V67.8602H162.38H161.306V64.1013Z" fill="#E52346"/>
<path d="M24.1406 58.6544V57.7339H25.2146H26.2886V58.6544V59.575H25.2146H24.1406V58.6544Z" fill="#E52346"/>
<path d="M79.6826 58.6544V57.7339H80.8333H81.984V58.6544V59.575H80.8333H79.6826V58.6544Z" fill="#E52346"/>
<path d="M88.124 58.6544V57.7339H89.2747H90.4254V58.6544V59.575H89.2747H88.124V58.6544Z" fill="#E52346"/>
<path d="M147.8 58.6544V57.7339H148.95H150.101V58.6544V59.575H148.95H147.8V58.6544Z" fill="#E52346"/>
</svg>
