<svg width="48" height="43" viewBox="0 0 48 43" fill="none" xmlns="http://www.w3.org/2000/svg">
<g clip-path="url(#clip0_1_369)">
<path d="M0 0.490967V42.3819H48V0.490967H0ZM45.1765 39.9177H2.82353V2.95514H45.1765V39.9177Z" fill="#363B5A"/>
<path d="M5.64648 33.7572C5.64648 35.7953 7.54644 37.4534 9.88178 37.4534C12.2171 37.4534 14.1171 35.7953 14.1171 33.7572C14.1171 32.1509 12.9366 30.7815 11.2935 30.2728V22.6684H17.0826C17.6455 25.0787 19.8259 26.9815 22.5877 27.4728V30.2728C20.9446 30.7814 19.7641 32.1509 19.7641 33.7572C19.7641 35.7953 21.6641 37.4534 23.9994 37.4534C26.3348 37.4534 28.2347 35.7953 28.2347 33.7572C28.2347 32.1509 27.0543 30.7815 25.4112 30.2728V27.4728C28.173 26.9816 30.3533 25.0787 30.9162 22.6684H36.7053V30.2728C35.0622 30.7814 33.8818 32.1509 33.8818 33.7572C33.8818 35.7953 35.7817 37.4534 38.1171 37.4534C40.4524 37.4534 42.3524 35.7953 42.3524 33.7572C42.3524 32.1509 41.1719 30.7815 39.5288 30.2728V12.5998C41.1719 12.0912 42.3524 10.7217 42.3524 9.11545C42.3524 7.07733 40.4524 5.41919 38.1171 5.41919C35.7817 5.41919 33.8818 7.07733 33.8818 9.11545C33.8818 10.7217 35.0622 12.0912 36.7053 12.5998V20.2042H30.9162C30.3534 17.7939 28.173 15.8911 25.4112 15.3998V12.5998C27.0543 12.0912 28.2347 10.7217 28.2347 9.11545C28.2347 7.07733 26.3348 5.41919 23.9994 5.41919C21.6641 5.41919 19.7641 7.07733 19.7641 9.11545C19.7641 10.7217 20.9446 12.0912 22.5877 12.5998V15.3998C19.8259 15.891 17.6455 17.7939 17.0826 20.2042H11.2935V12.5998C12.9366 12.0912 14.1171 10.7217 14.1171 9.11545C14.1171 7.07733 12.2171 5.41919 9.88178 5.41919C7.54644 5.41919 5.64648 7.07733 5.64648 9.11545C5.64648 10.7217 6.82681 12.0912 8.47001 12.5998V30.2728C6.82681 30.7815 5.64648 32.1509 5.64648 33.7572ZM38.1171 34.9892C37.3386 34.9892 36.7053 34.4365 36.7053 33.7572C36.7053 33.0778 37.3386 32.5251 38.1171 32.5251C38.8955 32.5251 39.5288 33.0778 39.5288 33.7572C39.5288 34.4365 38.8955 34.9892 38.1171 34.9892ZM38.1171 7.88336C38.8955 7.88336 39.5288 8.43607 39.5288 9.11545C39.5288 9.79482 38.8955 10.3475 38.1171 10.3475C37.3386 10.3475 36.7053 9.79482 36.7053 9.11545C36.7053 8.43607 37.3386 7.88336 38.1171 7.88336ZM23.9994 34.9892C23.221 34.9892 22.5877 34.4365 22.5877 33.7572C22.5877 33.0778 23.221 32.5251 23.9994 32.5251C24.7779 32.5251 25.4112 33.0778 25.4112 33.7572C25.4112 34.4365 24.7779 34.9892 23.9994 34.9892ZM23.9994 7.88336C24.7779 7.88336 25.4112 8.43607 25.4112 9.11545C25.4112 9.79482 24.7779 10.3475 23.9994 10.3475C23.221 10.3475 22.5877 9.79482 22.5877 9.11545C22.5877 8.43607 23.221 7.88336 23.9994 7.88336ZM23.9994 17.74C26.3348 17.74 28.2347 19.3982 28.2347 21.4363C28.2347 23.4744 26.3348 25.1326 23.9994 25.1326C21.6641 25.1326 19.7641 23.4744 19.7641 21.4363C19.7641 19.3982 21.6641 17.74 23.9994 17.74ZM9.88178 34.9892C9.10333 34.9892 8.47001 34.4365 8.47001 33.7572C8.47001 33.0778 9.10333 32.5251 9.88178 32.5251C10.6602 32.5251 11.2935 33.0778 11.2935 33.7572C11.2935 34.4365 10.6602 34.9892 9.88178 34.9892ZM9.88178 7.88336C10.6602 7.88336 11.2935 8.43607 11.2935 9.11545C11.2935 9.79482 10.6602 10.3475 9.88178 10.3475C9.10333 10.3475 8.47001 9.79482 8.47001 9.11545C8.47001 8.43607 9.10333 7.88336 9.88178 7.88336Z" fill="#363B5A"/>
<path d="M22.5879 20.2043H25.4114V22.6685H22.5879V20.2043Z" fill="#363B5A"/>
</g>
<defs>
<clipPath id="clip0_1_369">
<rect width="48" height="41.8909" fill="white" transform="translate(0 0.490967)"/>
</clipPath>
</defs>
</svg>
