<svg width="31" height="32" viewBox="0 0 31 32" fill="none" xmlns="http://www.w3.org/2000/svg">
<path d="M25.5043 10.8477L29.8795 15.2229C30.9528 16.2963 31.1935 18.0229 30.1903 18.8142L24.5417 23.2699C23.5377 24.0613 22.023 24.0317 20.9504 22.9591L17.7681 19.7775C16.6955 18.7042 16.6652 17.1895 17.4573 16.1855L21.913 10.5369C22.7043 9.53297 24.4309 9.7751 25.5043 10.8477ZM24.2951 13.1088L27.6184 16.4321C28.0171 16.8307 28.0171 17.4825 27.6184 17.8811C27.2198 18.2798 26.568 18.2798 26.1694 17.8811L22.8461 14.5578C22.6546 14.3653 22.5471 14.1048 22.5471 13.8333C22.5471 13.5618 22.6546 13.3013 22.8461 13.1088C23.2447 12.7101 23.8965 12.7101 24.2951 13.1088ZM22.6888 8.746e-06C26.8426 8.746e-06 30.211 3.36762 30.211 7.52215C30.211 9.47318 29.4676 11.2507 28.2489 12.5876L27.3689 11.7077C28.4419 10.5118 29.0155 8.94999 28.9717 7.34389C28.9279 5.7378 28.27 4.20962 27.1335 3.07394C25.997 1.93827 24.4683 1.28153 22.8622 1.23894C21.2561 1.19635 19.6947 1.77114 18.4996 2.84499C18.2147 2.54199 17.9141 2.25419 17.599 1.98278C18.9858 0.705119 20.8032 -0.00287024 22.6888 8.746e-06ZM18.5911 12.279C18.7978 12.4569 19.0156 12.6223 19.2444 12.7721L18.4723 13.7517C18.2457 13.5981 18.0276 13.4322 17.819 13.2549C18.0766 12.9449 18.3365 12.6179 18.5911 12.279ZM4.50208 19.5266C6.24568 20.622 7.82097 21.1469 9.73214 19.8351C12.5003 17.9343 20.9807 10.3922 20.0247 6.72712C19.3854 4.27559 16.5478 1.43874 14.0971 0.799467C10.4319 -0.157225 2.88988 8.32308 0.98978 11.092C-0.321981 13.0039 0.202133 14.5785 1.29834 16.3221C2.10962 17.6193 3.20544 18.7149 4.50282 19.5258L4.50208 19.5266ZM5.70902 16.9495C6.70705 17.577 7.60911 17.8775 8.70311 17.1267C10.2887 16.0379 15.1438 11.7195 14.5961 9.62155C14.2299 8.21826 12.6059 6.59424 11.2026 6.22736C9.10394 5.68037 4.78628 10.5354 3.69819 12.1211C2.94672 13.2151 3.24716 14.1164 3.87462 15.1144C4.33894 15.8574 4.96625 16.4849 5.70902 16.9495ZM16.629 4.19513C16.7683 4.33439 16.8788 4.49971 16.9541 4.68165C17.0295 4.8636 17.0683 5.0586 17.0683 5.25554C17.0683 5.45248 17.0295 5.64748 16.9541 5.82943C16.8788 6.01137 16.7683 6.17669 16.629 6.31595C16.4898 6.4552 16.3245 6.56566 16.1425 6.64103C15.9606 6.71639 15.7656 6.75518 15.5686 6.75518C15.1709 6.75518 14.7895 6.59718 14.5082 6.31595C14.227 6.03481 14.0689 5.65346 14.0689 5.2558C14.0688 4.85814 14.2267 4.47674 14.5079 4.1955C14.789 3.91426 15.1703 3.75623 15.568 3.75616C15.9657 3.75609 16.3471 3.91399 16.6283 4.19513H16.629Z" fill="#363B5A"/>
<path d="M8.04549 6.72144L14.1031 12.779L12.8467 14.0354L6.7891 7.97709L8.04549 6.72144ZM5.1016 9.60997L11.2138 15.7222L9.95888 16.9786L3.84668 10.8664L5.1016 9.60997ZM20.808 23.7788L19.5767 25.0093L18.6444 24.8971L16.748 26.7928L15.0945 27.012L14.876 28.6656L13.2224 28.8841L13.2084 30.3324L11.3504 30.7568L11.1311 32L8.77482 31.952L8.72758 29.5957L9.97069 29.3772L10.3944 27.5184L11.8427 27.5044L12.062 25.8508L13.7155 25.6323L13.934 23.9788L15.8312 22.0831L15.7175 21.1508L16.9488 19.9195C17.0455 20.045 17.1518 20.1653 17.2662 20.2797L20.4478 23.4613C20.5622 23.5758 20.6825 23.6813 20.808 23.7788Z" fill="#363B5A"/>
</svg>
